<svg width="266" height="52" viewBox="0 0 266 52" fill="#0BAA5E" xmlns="http://www.w3.org/2000/svg">
    <path d="M60 50.498C44.848 53.4441 35.2337 46.1184 32 40.4411C27.8424 33.5362 29.83 26.6268 35.5091 23.9981C39.4848 22.1579 44.0091 21.4981 49.0091 20.9981C44.0091 22.4981 41.0774 24.9371 39.8077 30.3141C37.9599 38.1396 49.9707 45.0444 58.7477 40.4411C67.5248 35.8378 70.7585 23.8694 61.9814 16.9648C55.0077 11.4789 42 10.998 31.0306 16.9648C23.6394 20.8008 11.8696 27.8984 11.5 36C11.1304 44.1016 23.1774 49.9542 30.1067 49.6474C19.1738 51.949 0 47.387 0 34.4981C0 16.0851 32.8784 -5.5911 58.7477 1.31382C79.9811 6.98134 81.0755 24.4832 79.5356 32.6155C78.6117 38.5997 75.152 47.552 60 50.498Z"/>
    <path d="M88.0088 45.3622L102.26 7.63392H112.988L127.081 45.3622H116.143L105.678 13.3038H109.464L98.7366 45.3622H88.0088ZM97.2642 39.0035V30.7372H118.194V39.0035H97.2642Z" />
    <path d="M144.636 30.3133V23.0008H150.999C152.437 23.0008 153.523 22.6475 154.26 21.941C155.031 21.2345 155.417 20.2983 155.417 19.1326C155.417 17.9668 155.031 17.0307 154.26 16.3241C153.523 15.6176 152.437 15.2644 150.999 15.2644H144.636V7.63392H152.682C155.276 7.63392 157.555 8.11082 159.518 9.06462C161.482 10.0184 163.024 11.3432 164.146 13.0388C165.268 14.7345 165.829 16.7127 165.829 18.9736C165.829 21.2345 165.25 23.2127 164.093 24.9084C162.972 26.604 161.394 27.9288 159.361 28.8826C157.327 29.8364 154.926 30.3133 152.156 30.3133H144.636ZM136.117 45.3622V7.63392H146.634V45.3622H136.117ZM156.31 45.3622L146.109 29.2535L155.574 27.1869L168.248 45.3622H156.31Z"/>
    <path d="M177.318 45.3622V7.63392H187.835V45.3622H177.318Z"/>
    <path d="M199.566 45.3622V7.63392H210.084V45.3622H199.566ZM208.086 45.3622V36.566H228.174V45.3622H208.086ZM208.086 30.4192V21.835H226.228V30.4192H208.086ZM208.086 16.4301V7.63392H227.858V16.4301H208.086Z"/>
    <path d="M250.39 45.998C247.2 45.998 244.413 45.5388 242.029 44.6203C239.68 43.6665 237.506 42.1652 235.508 40.1163L242.082 33.4926C243.449 34.7997 244.886 35.8065 246.394 36.513C247.901 37.1842 249.514 37.5198 251.232 37.5198C252.669 37.5198 253.756 37.3078 254.492 36.8839C255.228 36.4247 255.596 35.8065 255.596 35.0293C255.596 34.2521 255.281 33.6163 254.65 33.1217C254.019 32.5918 253.177 32.1326 252.126 31.744C251.109 31.3201 249.97 30.8961 248.708 30.4722C247.481 30.0483 246.253 29.5361 245.026 28.9355C243.799 28.335 242.66 27.6108 241.608 26.763C240.592 25.8798 239.768 24.8024 239.137 23.5307C238.506 22.2236 238.19 20.6339 238.19 18.7616C238.19 16.3241 238.769 14.2222 239.925 12.4559C241.082 10.6896 242.713 9.34723 244.816 8.42875C246.92 7.47495 249.391 6.99805 252.231 6.99805C255.036 6.99805 257.63 7.45729 260.014 8.37577C262.433 9.25892 264.431 10.5307 266.009 12.191L259.383 18.8146C258.226 17.6842 257.069 16.854 255.912 16.3241C254.755 15.7589 253.493 15.4763 252.126 15.4763C251.039 15.4763 250.162 15.6529 249.496 16.0062C248.865 16.3595 248.55 16.8894 248.55 17.5959C248.55 18.3377 248.865 18.9559 249.496 19.4505C250.127 19.9097 250.951 20.3336 251.968 20.7222C253.02 21.1108 254.159 21.5171 255.386 21.941C256.648 22.3649 257.893 22.8771 259.12 23.4777C260.347 24.0429 261.469 24.7847 262.485 25.7032C263.537 26.5864 264.379 27.6991 265.01 29.0415C265.641 30.3839 265.956 32.0089 265.956 33.9165C265.956 37.7671 264.589 40.7521 261.854 42.8717C259.155 44.9559 255.334 45.998 250.39 45.998Z"/>
</svg>
